<svg xmlns="http://www.w3.org/2000/svg" width="700.67" height="210.896" viewBox="0 0 700.67 210.896">
  <g id="g10" transform="translate(-450.36 772.113)">
    <g id="g12">
      <path id="path16" d="M742.258-732.277v91.564h20.705q6.808,0,10.675-.368a33.539,33.539,0,0,0,8.005-1.84,21.931,21.931,0,0,0,7.18-4.144q13.71-11.592,13.711-39.939,0-19.966-6.028-29.905t-14.863-12.655a73.38,73.38,0,0,0-21.348-2.713Zm-10.584-21.629h35.615a96.032,96.032,0,0,1,23.833,2.577,43.821,43.821,0,0,1,18.036,9.664q21.072,18.034,21.075,54.845a107.654,107.654,0,0,1-2.116,22.179,65.521,65.521,0,0,1-6.535,18.084,56.208,56.208,0,0,1-11.32,14.4,46.737,46.737,0,0,1-11.871,7.821,53.611,53.611,0,0,1-13.849,4.14,105.292,105.292,0,0,1-16.7,1.2H732.226q-7.454,0-11.227-2.253a10.477,10.477,0,0,1-4.923-6.348,40.254,40.254,0,0,1-1.149-10.631v-98.928q0-8.832,3.956-12.788t12.791-3.96" fill="#373334"/>
      <path id="path18" d="M871.924-613.568l2.3-5.616L843.3-697.034q-2.854-6.714-2.852-9.755a11.43,11.43,0,0,1,1.656-5.983,12.4,12.4,0,0,1,4.553-4.417,12.018,12.018,0,0,1,6.029-1.655q5.426,0,8.188,3.451a31.91,31.91,0,0,1,4.877,9.892l21.26,61.841,20.152-57.513a99.093,99.093,0,0,1,4.324-10.949q1.934-3.96,4.1-5.34a11.38,11.38,0,0,1,6.117-1.381,10.8,10.8,0,0,1,5.479,1.521,10.624,10.624,0,0,1,4.048,4.092,11.054,11.054,0,0,1,1.425,5.429q-.368,1.752-1.2,4.971t-2.025,6.533l-32.76,85.765a100.358,100.358,0,0,1-8.281,17.761,27.268,27.268,0,0,1-10.721,9.892q-6.674,3.452-17.992,3.451-11.042,0-16.563-2.389t-5.524-8.745a8.485,8.485,0,0,1,2.625-6.672q2.622-2.348,7.775-2.344a14.294,14.294,0,0,1,3.959.549,18.732,18.732,0,0,0,4.141.555,14.986,14.986,0,0,0,6.808-1.288,11.922,11.922,0,0,0,4.463-4.467,68.55,68.55,0,0,0,4.557-9.339" fill="#373334"/>
      <path id="path20" d="M1013.459-667.772q0-15.366-6.765-23.923t-18.173-8.56a22.54,22.54,0,0,0-12.977,3.817,24.267,24.267,0,0,0-8.649,11.275,45.9,45.9,0,0,0-3.036,17.391,45.505,45.505,0,0,0,2.992,17.211,24.636,24.636,0,0,0,8.557,11.273,22.216,22.216,0,0,0,13.113,3.911q11.408,0,18.173-8.607T1013.459-667.772Zm25.215,0a59.425,59.425,0,0,1-3.5,20.707,45.779,45.779,0,0,1-10.124,16.289,44.75,44.75,0,0,1-15.829,10.447,56.022,56.022,0,0,1-20.7,3.635A54.367,54.367,0,0,1,968-620.38a45.47,45.47,0,0,1-15.781-10.535,45.5,45.5,0,0,1-10.123-16.195,59.241,59.241,0,0,1-3.452-20.663,59.917,59.917,0,0,1,3.5-20.887,45.449,45.449,0,0,1,10.031-16.2A44.268,44.268,0,0,1,968-715.209a55.931,55.931,0,0,1,20.523-3.635,55.912,55.912,0,0,1,20.7,3.679,45.091,45.091,0,0,1,15.921,10.493,45.393,45.393,0,0,1,10.076,16.2,59.55,59.55,0,0,1,3.452,20.7" fill="#373334"/>
      <path id="path22" d="M1085.051-704.948v3.036a43.945,43.945,0,0,1,14.493-12.833,38.614,38.614,0,0,1,18.084-4.1,36.067,36.067,0,0,1,17.76,4.328,27.5,27.5,0,0,1,11.688,12.236,29.223,29.223,0,0,1,3.22,9.943,103.2,103.2,0,0,1,.735,13.616v46.749q0,7.548-3.449,11.409a11.466,11.466,0,0,1-8.973,3.868,11.577,11.577,0,0,1-9.109-3.959q-3.5-3.954-3.5-11.319v-41.872q0-12.424-3.452-19t-13.757-6.581a20.375,20.375,0,0,0-12.239,4,23.025,23.025,0,0,0-8.1,11q-1.844,5.614-1.841,20.981v31.473q0,7.64-3.544,11.457a11.927,11.927,0,0,1-9.155,3.82,11.382,11.382,0,0,1-8.927-3.959q-3.5-3.954-3.5-11.319v-72.607q0-7.182,3.131-10.72a10.828,10.828,0,0,1,8.557-3.545,11.635,11.635,0,0,1,5.984,1.565,11.222,11.222,0,0,1,4.277,4.692,16.568,16.568,0,0,1,1.611,7.639" fill="#373334"/>
      <path id="path24" d="M651.454-762.789a13.841,13.841,0,0,0-13.841,13.845A13.847,13.847,0,0,0,651.452-735.1,13.863,13.863,0,0,0,665.3-748.944,13.859,13.859,0,0,0,651.454-762.789ZM562.5-598.243A13.846,13.846,0,0,0,548.655-584.4,13.846,13.846,0,0,0,562.5-570.548a13.852,13.852,0,0,0,13.843-13.843A13.856,13.856,0,0,0,562.5-598.243Zm-53.376-85.994a13.855,13.855,0,0,0-13.851,13.84l2.757,0h-2.757a13.851,13.851,0,0,0,13.851,13.847,13.84,13.84,0,0,0,13.839-13.843A13.848,13.848,0,0,0,509.125-684.237Zm-35.591-78.552a13.852,13.852,0,0,0-13.848,13.841h2.757l-2.757,0A13.857,13.857,0,0,0,473.53-735.1a13.852,13.852,0,0,0,13.847-13.851A13.843,13.843,0,0,0,473.535-762.789ZM562.493-735.1a13.853,13.853,0,0,0,13.844-13.851A13.844,13.844,0,0,0,562.5-762.789h0a13.85,13.85,0,0,0-13.848,13.841A13.857,13.857,0,0,0,562.493-735.1Zm54.567,50.86a13.846,13.846,0,0,0-13.845,13.84,13.851,13.851,0,0,0,13.845,13.855A13.856,13.856,0,0,0,630.9-670.386a13.857,13.857,0,0,0-13.844-13.851" fill="#ed157a"/>
      <path id="path26" d="M651.461-768.531a19.618,19.618,0,0,1,19.589,19.592,19.617,19.617,0,0,1-19.589,19.588l0-1.765,0,1.765a19.615,19.615,0,0,1-19.587-19.6,19.612,19.612,0,0,1,19.593-19.584ZM625.4-693.5l-.688,1.193-1.323-.379a23.271,23.271,0,0,0-6.327-.88,23.1,23.1,0,0,0-16.387,6.789l-1.631,1.633-25.121-43.572,1.383-.916a23.164,23.164,0,0,0,10.127-16.008l.217-1.516h42.659l.216,1.516a23.205,23.205,0,0,0,14.163,18.147l1.872.765Zm11.253,23.1-1.765,0,1.765,0A19.613,19.613,0,0,1,617.056-650.8a19.617,19.617,0,0,1-19.588-19.588,19.621,19.621,0,0,1,19.6-19.588,19.613,19.613,0,0,1,19.585,19.584Zm-61.737,64.44-.824,1.427-1.477-.721a23.082,23.082,0,0,0-10.115-2.32,23.081,23.081,0,0,0-10.115,2.32l-1.48.721-27.447-47.6,1.071-.953a23.184,23.184,0,0,0,6.884-10.972l.363-1.281h62.632l.364,1.281a23.16,23.16,0,0,0,6.169,10.3l.989.959Zm7.173,21.559-1.764.005,1.764,0A19.618,19.618,0,0,1,562.493-564.8,19.613,19.613,0,0,1,542.909-584.4,19.607,19.607,0,0,1,562.5-603.983,19.612,19.612,0,0,1,582.087-584.4ZM509.117-650.8a19.614,19.614,0,0,1-19.588-19.584l1.768,0-1.768,0a19.617,19.617,0,0,1,19.593-19.584,19.618,19.618,0,0,1,19.588,19.592A19.616,19.616,0,0,1,509.117-650.8Zm-27.669-74.172-1.009-1.751,1.869-.765a23.2,23.2,0,0,0,14.161-18.147l.217-1.516h42.655l.219,1.516a23.179,23.179,0,0,0,10.129,16.008l1.379.916-24.652,42.747-1.624-1.492a23.086,23.086,0,0,0-15.671-6.105,23.121,23.121,0,0,0-7.261,1.167l-1.368.452Zm-7.917-4.377a19.608,19.608,0,0,1-19.584-19.588l1.767,0h-1.767a19.61,19.61,0,0,1,19.592-19.588,19.609,19.609,0,0,1,19.584,19.592A19.61,19.61,0,0,1,473.531-729.352Zm97.125,2.152,26.2,45.429-.437.857a23.054,23.054,0,0,0-2.524,10.248l-.023,1.747H532.307l-.02-1.747a23.023,23.023,0,0,0-3.059-11.236l-.507-.881L554.333-727.2l1.349.413a23.2,23.2,0,0,0,6.815,1.02,23.209,23.209,0,0,0,6.812-1.02ZM562.5-768.531a19.615,19.615,0,0,1,19.588,19.592,19.615,19.615,0,0,1-19.593,19.588,19.613,19.613,0,0,1-19.587-19.6,19.611,19.611,0,0,1,19.587-19.584m66.029,16.283-.216,1.515H585.648l-.217-1.515A23.169,23.169,0,0,0,562.5-772.113a23.173,23.173,0,0,0-22.937,19.864l-.219,1.515H496.687l-.217-1.515a23.168,23.168,0,0,0-22.935-19.864,23.17,23.17,0,0,0-23.175,23.169,23.177,23.177,0,0,0,23.175,23.177c.693,0,1.383-.036,2.08-.1l1.123-.1,20.529,35.6-1.336.924a23.148,23.148,0,0,0-9.983,19.052,23.18,23.18,0,0,0,23.171,23.177A23.173,23.173,0,0,0,519-649.425l1.471-.7,27.471,47.636-1.048.959a23.123,23.123,0,0,0-7.572,17.137A23.176,23.176,0,0,0,562.5-561.217a23.178,23.178,0,0,0,23.175-23.173,23.105,23.105,0,0,0-7.575-17.137l-1.048-.955,27.771-48.159,1.5.784a23.078,23.078,0,0,0,10.736,2.644,23.185,23.185,0,0,0,23.177-23.177,23.145,23.145,0,0,0-10.784-19.576l-1.431-.909,20.231-35.091,1.128.1c.7.061,1.387.1,2.077.1a23.175,23.175,0,0,0,23.173-23.177,23.2,23.2,0,0,0-23.173-23.169,23.172,23.172,0,0,0-22.936,19.864" fill="#373334"/>
    </g>
  </g>
</svg>
